2.5Hzlow3min_grf.mot
version=1
nRows=12
nColumns 19
inDegrees=yes
endheader
time	1_ground_force_vx	1_ground_force_vy	1_ground_force_vz	1_ground_force_px	1_ground_force_py	1_ground_force_pz	1_ground_torque_x	1_ground_torque_y	1_ground_torque_z	2_ground_force_vx	2_ground_force_vy	2_ground_force_vz	2_ground_force_px	2_ground_force_py	2_ground_force_pz	2_ground_torque_x	2_ground_torque_y	2_ground_torque_z
            3.751500	           -1.471287	          480.861713	          -19.716768	           -0.252746	            0.006422	           -0.452477	           -0.000930	            0.303823	           -0.012458	           -1.138201	          461.379969	           29.005455	           -0.240369	            0.005622	           -0.699412	           -0.000564	            0.228588	            0.014371
            3.752000	           -1.194624	          475.813148	          -19.463958	           -0.252647	            0.006422	           -0.452614	           -0.000811	            0.322850	           -0.013207	           -1.080217	          458.250964	           28.618840	           -0.240260	            0.005623	           -0.699520	           -0.000538	            0.228356	            0.014261
            3.752500	           -0.873128	          471.306931	          -19.575790	           -0.252566	            0.006423	           -0.452719	           -0.000510	            0.275251	           -0.011433	           -0.873687	          452.912549	           28.271209	           -0.240102	            0.005622	           -0.699141	           -0.000405	            0.209772	            0.013094
            3.753000	           -0.458778	          467.880027	          -19.132941	           -0.252500	            0.006421	           -0.452439	           -0.000331	            0.337591	           -0.013805	           -0.624440	          448.680319	           27.599004	           -0.240294	            0.005622	           -0.699253	           -0.000209	            0.150191	            0.009238
            3.753500	            0.138803	          462.110658	          -18.929876	           -0.252684	            0.006423	           -0.452891	            0.000098	            0.325445	           -0.013332	           -0.327451	          444.262276	           27.442331	           -0.240123	            0.005621	           -0.699015	           -0.000129	            0.174380	            0.010772
            3.754000	            0.231977	          458.323689	          -18.625344	           -0.252637	            0.006423	           -0.452775	            0.000123	            0.243977	           -0.009915	            0.014332	          440.397326	           27.146824	           -0.240275	            0.005620	           -0.698770	            0.000005	            0.156517	            0.009648
            3.754500	            0.507303	          454.358684	          -18.826456	           -0.252653	            0.006423	           -0.452824	            0.000276	            0.246786	           -0.010226	            0.024699	          437.453129	           26.526246	           -0.239901	            0.005623	           -0.699236	            0.000010	            0.180938	            0.010972
            3.755000	            0.968183	          449.669113	          -18.205708	           -0.252631	            0.006424	           -0.452946	            0.000779	            0.361878	           -0.014651	            0.606672	          431.932033	           26.130870	           -0.240038	            0.005621	           -0.698908	            0.000213	            0.151417	            0.009160
            3.755500	            1.152344	          445.342772	          -18.224714	           -0.252675	            0.006424	           -0.453140	            0.000866	            0.334597	           -0.013693	            0.572347	          428.433905	           25.883765	           -0.240104	            0.005621	           -0.698991	            0.000224	            0.167582	            0.010124
            3.756000	            1.474814	          441.735948	          -17.874122	           -0.252463	            0.006423	           -0.452767	            0.000981	            0.293951	           -0.011894	            0.912094	          425.121774	           25.496374	           -0.239715	            0.005623	           -0.699002	            0.000251	            0.116824	            0.007006
            3.756500	            1.658063	          438.672677	          -18.162853	           -0.252322	            0.006420	           -0.452036	            0.000973	            0.257365	           -0.010656	            1.354765	          419.232558	           24.912032	           -0.240041	            0.005620	           -0.698409	            0.000300	            0.092727	            0.005510
            3.757000	            1.843542	          433.983642	          -17.678990	           -0.252517	            0.006422	           -0.452601	            0.000756	            0.177976	           -0.007250	            1.085423	          415.918501	           24.431043	           -0.239923	            0.005622	           -0.698867	            0.000262	            0.100485	            0.005902
